<svg id="Layer_1" data-name="Layer 1" xmlns="http://www.w3.org/2000/svg" width="72" height="14.25" viewBox="0 0 72 14.25">
                        <defs>
                            <style>
                                .cls-1 {
                                    fill: #231f20;
                                }
                            </style>
                        </defs>
                        <title>Detroit Logo</title>
                        <g>
                            <path class="cls-1" d="M23.33,4.36H17.54v6.25h5.78c1.92,0,2.59-.63,2.59-2.18V6.54c0-1.54-.67-2.18-2.59-2.18M24,7.88C24,8.77,23.68,9,22.86,9h-3.4V5.92h3.4C23.68,5.92,24,6.15,24,7Zm4.82,1.23h5v1.5H26.9V4.36h6.84V5.81H28.82v1h4.66V8.11H28.82ZM56.46,4.29H53.39c-1.73,0-2.75.43-2.75,2.26V8.42c0,1.83,1,2.26,2.75,2.26h3.07c1.73,0,2.75-.43,2.75-2.26V6.56c0-1.83-1-2.26-2.75-2.26m.79,3.53c0,.9-.19,1.25-1.1,1.25H53.7c-.91,0-1.1-.35-1.1-1.25V7.15c0-.78.19-1.25,1.2-1.25H56c1,0,1.2.48,1.2,1.25ZM70.12,4.36V5.92H67.43v4.69H65.51V5.92H62.82V4.36Zm-22.34,0H42v6.25h1.92V9h3c.6,0,.79.21.79.87v.75h1.92V9.55c0-1-.48-1.28-1-1.38v0c.88-.21,1.07-.7,1.07-1.54v-.4c0-1.12-.4-1.86-1.87-1.86m0,2.42c0,.45-.19.66-.71.66H43.91V5.92h3c.6,0,.88.1.88.65ZM60.31,4.36h1.92v6.25H60.31Zm-26.1,0h7.3V5.92H38.81v4.69H36.9V5.92H34.2Z" transform="translate(0 -0.17)"></path>
                            <polygon class="cls-1" points="70.72 4.29 70.46 4.29 70.46 4.2 71.09 4.2 71.09 4.29 70.83 4.29 70.83 4.99 70.72 4.99 70.72 4.29"></polygon>
                            <polygon class="cls-1" points="71.21 4.2 71.35 4.2 71.6 4.87 71.85 4.2 72 4.2 72 4.99 71.9 4.99 71.9 4.33 71.9 4.33 71.65 4.99 71.56 4.99 71.31 4.33 71.31 4.33 71.31 4.99 71.21 4.99 71.21 4.2"></polygon>
                            <path class="cls-1" d="M12.28,10.71,10.05,8.42h1.67l0-1S11.76,2.7,7,2.7a4.87,4.87,0,0,0-2.89,1l.7.72a3.65,3.65,0,0,1,5.88,2.9h-3l4.62,4.74a7,7,0,0,0,1.58-2.87Z" transform="translate(0 -0.17)"></path>
                            <path class="cls-1" d="M7,.32A7,7,0,0,0,2.45,2l.8.82A5.81,5.81,0,0,1,7,1.55,5.75,5.75,0,0,1,13,7.39c0,.94,0,1,0,1H14A7,7,0,0,0,7,.32" transform="translate(0 -0.17)"></path>
                            <path class="cls-1" d="M4,6.39H2.37l0,1s0,4.68,4.72,4.68A5.19,5.19,0,0,0,10,11l-.71-.73a3.65,3.65,0,0,1-5.88-2.9H6.44L1.83,2.63A7,7,0,0,0,.23,5.58L1.81,4.11Zm6.83,5.51A5.79,5.79,0,0,1,7,13.27,5.8,5.8,0,0,1,1.13,7.43c0-.87,0-1,0-1H.07a7.2,7.2,0,0,0-.07,1,7,7,0,0,0,11.65,5.34Z" transform="translate(0 -0.17)"></path>
                            <path class="cls-1" d="M13.34.17a.89.89,0,1,1-.89.88.88.88,0,0,1,.89-.88m0,1.64a.73.73,0,0,0,.73-.76.73.73,0,1,0-1.46,0,.73.73,0,0,0,.73.76M13,.54h.4c.25,0,.36.1.36.3a.27.27,0,0,1-.27.28l.3.46h-.17l-.28-.45h-.17v.45H13Zm.16.46h.17c.14,0,.27,0,.27-.17s-.12-.16-.23-.16h-.21Z" transform="translate(0 -0.17)"></path>
                        </g>
                    </svg>