<svg width="301" height="115" viewBox="0 0 301 115" fill="none" xmlns="http://www.w3.org/2000/svg">
<g clipPath="url(#clip0_89_3880)">
<path d="M285.128 65.6281L284.378 65.5096C284.062 65.4504 283.825 65.3715 283.687 65.2531C283.549 65.1346 283.47 64.957 283.47 64.6807C283.47 64.4439 283.568 64.2662 283.746 64.1478C283.924 64.0097 284.2 63.9504 284.575 63.9504C284.97 63.9504 285.305 64.0097 285.562 64.1478C285.818 64.286 286.036 64.4439 286.233 64.661L287.338 63.536C287.022 63.1807 286.647 62.9241 286.213 62.7268C285.779 62.5491 285.266 62.4504 284.693 62.4504C284.239 62.4504 283.845 62.5097 283.489 62.6281C283.134 62.7465 282.838 62.9044 282.601 63.1018C282.365 63.2991 282.167 63.5557 282.029 63.832C281.891 64.1083 281.832 64.4241 281.832 64.7794C281.832 65.4307 282.029 65.9439 282.404 66.3189C282.779 66.7136 283.371 66.9504 284.18 67.0491L284.93 67.1478C285.286 67.207 285.522 67.286 285.641 67.4439C285.759 67.582 285.818 67.7596 285.818 67.9768C285.818 68.2531 285.72 68.4702 285.522 68.6478C285.325 68.8057 285.029 68.9044 284.614 68.9044C283.864 68.9044 283.213 68.6083 282.7 68.036L281.615 69.1412C281.95 69.5162 282.345 69.8123 282.799 70.0294C283.272 70.2662 283.825 70.3649 284.516 70.3649C284.99 70.3649 285.404 70.3057 285.779 70.1873C286.154 70.0689 286.47 69.8912 286.707 69.6741C286.963 69.457 287.141 69.2004 287.279 68.8846C287.417 68.5689 287.476 68.2333 287.476 67.8781C287.476 67.207 287.279 66.6939 286.904 66.3386C286.529 65.9833 285.937 65.7268 285.147 65.6083L285.128 65.6281Z" fill="#50B0EF"/>
<path d="M294.779 62.6084L292.924 66.2005H292.904L291.029 62.6084H289.272V70.2466H290.831V65.1742H290.871L291.443 66.3781L292.904 69.0623L294.384 66.3584L294.956 65.2334H294.976V70.2466H296.555V62.6084H294.779Z" fill="#50B0EF"/>
<path d="M9.99619 106.839C9.99619 108.931 10.312 110.174 12.9172 111.003C14.3383 111.496 15.483 111.753 15.483 112.779C15.483 113.569 14.8712 114.062 13.2528 114.062C12.2265 114.062 8.7133 113.924 7.25277 113.924C5.39751 113.924 3.48303 114.062 2.53567 114.062C0.976455 114.062 0.483032 113.529 0.483032 112.858C0.483032 111.161 3.75935 111.575 4.11461 108.95C4.29224 107.668 4.37119 94.0689 4.37119 89.5096C4.37119 86.2728 4.37119 72.8123 4.29224 71.786C4.01593 68.2333 0.660664 68.6873 0.660664 66.7333C0.660664 66.1215 0.976457 65.4504 2.61461 65.4504C3.81856 65.4504 6.20672 65.5886 18.3251 65.5886C27.8186 65.5886 30.7594 65.4504 31.4304 65.4504C32.7133 65.4504 33.2067 65.7662 33.5225 67.6215C33.7988 68.9439 34.1343 72.4965 34.4896 74.6675C34.7462 75.8715 34.8844 77.1149 34.8844 77.4702C34.8844 78.3189 34.3515 78.7925 33.6804 78.7925C32.5751 78.7925 32.1212 77.1149 31.687 76.0294C29.3778 70.0294 28.5686 69.1018 18.6804 69.1018C11.0028 69.1018 10.0357 69.457 10.0357 72.2991V85.207C10.0357 86.6675 10.3515 87.2596 12.4436 87.2596C22.2922 87.2596 22.3909 86.5097 23.7133 83.4307C23.9896 82.7597 24.3844 82.1873 24.9962 82.1873C25.9238 82.1873 26.3186 82.9373 26.3186 84.9504V93.5162C26.3186 95.2531 26.062 96.0425 25.1541 96.0425C24.2462 96.0425 23.8712 95.1149 23.5554 94.4044C22.1738 91.3846 21.8186 90.8123 12.5028 90.8123C10.4107 90.8123 10.0554 91.4833 10.0554 92.8649V106.858L9.99619 106.839Z" fill="#50B0EF"/>
<path d="M50.9697 77.6872C60.4631 77.6872 68.8513 84.7925 68.8513 97.0096C68.8513 109.227 61.0355 114.595 51.5421 114.595C40.746 114.595 33.8381 106.957 33.8381 96.3583C33.8381 85.7596 41.0815 77.6675 50.9697 77.6675V77.6872ZM39.8184 94.8583C39.8184 97.6017 40.2526 101.332 41.9105 104.529C44.5355 109.503 48.8776 111.141 52.4302 111.141C58.0355 111.141 63.0881 107.154 63.0881 98.3122C63.0881 94.3254 62.1013 90.3188 60.5026 87.4372C58.0158 83.0359 54.246 80.8648 50.4763 80.8648C44.575 80.8648 39.8184 85.957 39.8184 94.8583Z" fill="#50B0EF"/>
<path d="M82.8059 91.6214V107.431C82.8059 109.325 83.7335 110.174 85.5493 110.944C86.5756 111.398 88.3914 111.654 88.3914 112.76C88.3914 113.51 87.9967 114.042 86.3388 114.042C84.6809 114.042 82.3914 113.904 80.1809 113.904C78.3651 113.904 78.4045 114.042 75.523 114.042C73.9243 114.042 73.5295 113.47 73.5295 112.839C73.5295 111.812 74.6743 111.496 75.3453 111.102C77.0822 110.075 77.398 109.049 77.398 107.273V85.4833C77.398 84.1017 76.4703 83.5688 74.9506 83.1346C74.2006 82.878 73.569 82.4635 73.569 81.8122C73.569 80.6083 74.8519 80.3912 76.4111 79.7793C78.5032 78.9701 79.8848 78.1806 80.9506 78.1806C81.6217 78.1806 82.1151 78.4964 82.2927 79.5227C82.7072 81.6543 82.7861 84.0622 83.4374 84.0622C84.0493 84.0622 88.273 77.6675 94.8453 77.6675C97.648 77.6675 100.608 79.3649 100.608 83.3912C100.608 86.1938 98.9703 88.582 96.6019 88.582C95.0032 88.582 95.3585 87.5951 95.0427 85.8188C94.648 83.7267 93.4835 82.3451 91.5295 82.3451C87.2664 82.3451 82.8256 87.753 82.8256 91.6214H82.8059Z" fill="#50B0EF"/>
<path d="M109.253 89.2727C109.253 75.4569 117.602 63.3977 131.575 63.3977C137.516 63.3977 140.852 65.8056 143.24 65.8056C144.562 65.8056 145.51 65.1938 146.477 65.1938C148.036 65.1938 148.115 66.9701 149.102 71.2727C149.891 74.8648 150.345 75.9701 150.345 76.7003C150.345 77.6674 149.773 78.2003 149.003 78.2003C147.681 78.2003 146.97 76.7003 145.904 75.1806C142.569 70.3056 137.24 66.8714 131.437 66.8714C121.667 66.8714 115.549 76.424 115.549 87.6148C115.549 100.266 122.773 109.444 133.352 109.444C138.641 109.444 143.595 106.779 145.154 104.332C146.358 102.378 146.536 101.569 146.536 97.2661C146.536 90.4767 145.964 90.9701 143.792 89.9832C142.51 89.3122 139.964 89.4898 139.964 87.8911C139.964 86.8253 140.812 86.253 142.411 86.253C144.01 86.253 146.496 86.3911 147.839 86.3911C149.694 86.3911 150.464 86.253 152.536 86.253C153.681 86.253 154.352 86.8253 154.352 87.753C154.352 89.5688 152.181 88.8582 152.181 94.3648C152.181 97.3451 152.082 109.069 152.082 110.885C152.082 112.345 151.825 113.273 150.444 113.273C149.773 113.273 149.102 112.602 148.411 111.042C147.957 110.056 147.444 109.01 146.812 109.01C146.2 109.01 145.036 110.075 143.22 111.042C140.516 112.463 136.391 114.161 131.733 114.161C117.839 114.161 109.233 102.931 109.233 89.2924L109.253 89.2727Z" fill="#50B0EF"/>
<path d="M176.674 76.7202C186.167 76.7202 194.555 83.8254 194.555 96.0425C194.555 108.26 186.739 113.628 177.246 113.628C166.45 113.628 159.542 105.99 159.542 95.3912C159.542 84.7925 166.785 76.7004 176.674 76.7004V76.7202ZM165.522 93.8912C165.522 96.6346 165.956 100.365 167.614 103.562C170.239 108.536 174.581 110.174 178.134 110.174C183.739 110.174 188.792 106.187 188.792 97.3452C188.792 93.3583 187.805 89.3517 186.206 86.4702C183.72 82.0689 179.95 79.8978 176.18 79.8978C170.279 79.8978 165.522 84.9899 165.522 93.8912Z" fill="#50B0EF"/>
<path d="M216.246 76.7202C225.74 76.7202 234.128 83.8254 234.128 96.0425C234.128 108.26 226.312 113.628 216.819 113.628C206.023 113.628 199.115 105.99 199.115 95.3912C199.115 84.7925 206.358 76.7004 216.246 76.7004V76.7202ZM205.095 93.8912C205.095 96.6346 205.529 100.365 207.187 103.562C209.812 108.536 214.154 110.174 217.707 110.174C223.312 110.174 228.365 106.187 228.365 97.3452C228.365 93.3583 227.378 89.3517 225.779 86.4702C223.292 82.0689 219.523 79.8978 215.753 79.8978C209.852 79.8978 205.095 84.9899 205.095 93.8912Z" fill="#50B0EF"/>
<path d="M265.451 109.306C265.312 108.911 265.095 108.635 264.839 108.635C264.562 108.635 264.207 109.207 263.339 109.977C261.701 111.477 258.582 113.628 253.431 113.628C246.069 113.628 238.865 107.865 238.865 95.9243C238.865 82.9967 246.266 76.7006 254.457 76.7006C261.523 76.7006 264.405 82.1085 265.016 82.1085C265.372 82.1085 265.589 81.7533 265.589 79.7993V68.6677C265.589 67.2862 264.661 66.5756 263.141 66.1414C262.431 65.8848 261.582 65.4309 261.582 64.7993C261.582 63.6348 262.727 63.4177 264.326 62.8059C267.444 61.5625 268.589 60.6743 269.694 60.6743C270.799 60.6743 271.332 61.2862 271.332 62.5888C271.332 64.2664 271.056 65.9638 271.056 72.6546V105.674C271.056 107.451 271.668 108.951 273.187 108.951C274.253 108.951 274.53 108.556 275.102 108.556C275.24 108.556 275.635 108.694 275.635 109.543C275.635 111.437 273.543 113.391 270.937 113.391C268.332 113.391 266.497 112.326 265.47 109.306H265.451ZM265.707 95.1743C265.707 83.8651 260.023 80.2533 255.187 80.2533C249.424 80.2533 244.589 85.3059 244.589 95.0756C244.589 103.72 248.28 109.681 255.247 109.681C261.148 109.681 265.687 105.319 265.687 95.1743H265.707Z" fill="#50B0EF"/>
<path d="M245.196 0.121338C257.077 0.121338 264.36 11.4108 264.498 23.8648C264.538 27.8121 264.617 32.8055 264.656 36.4963C264.656 37.5621 264.123 37.9963 263.511 37.9963C263.038 37.9963 262.544 37.7398 262.268 37.3055C260.373 34.3253 256.525 30.9108 250.643 29.0753C240.972 26.0556 234.933 21.8713 233.571 13.5819C232.308 5.94371 237.38 0.200285 244.959 0.121338C245.038 0.121338 245.117 0.121338 245.196 0.121338Z" fill="#5BC63A"/>
<path d="M288.821 11.115C296.281 11.115 301.393 16.6808 300.347 24.2992C299.203 32.6084 293.262 36.9505 283.67 40.2071C277.828 42.2005 274.078 45.6939 272.242 48.7334C271.966 49.1874 271.472 49.4637 270.999 49.4637C270.406 49.4637 269.874 49.0492 269.854 48.0032C269.814 44.3124 269.735 39.3189 269.696 35.3716C269.538 22.8387 276.604 11.2926 288.624 11.1347C288.683 11.1347 288.762 11.1347 288.821 11.1347" fill="#50B0EF"/>
</g>
<defs>
<clipPath id="clip0_89_3880">
<rect width="300" height="114.474" fill="white" transform="translate(0.483032 0.121338)"/>
</clipPath>
</defs>
</svg>
