<svg aria-hidden="true" xmlns="http://www.w3.org/2000/svg" class="a-svg " aria-label="logo" role="img" width="180px" height="25px" viewBox="0 0 176 27"><g><path d="M144.309 8.032h-3.178a.25.25 0 0 0-.238.25v7.197c0 .89-.479 1.415-1.768 1.438l-1.01.006c-1.406-.006-1.832-.652-1.832-1.513v-.117h-.004l.006-.868c0-.385-.081-.462-.309-.466-1.032-.004-2.178-.019-3.208-.019a.215.215 0 0 0-.16.066l-.009.008-.004.005a.23.23 0 0 0-.05.076.228.228 0 0 0-.015.09c0 1.122-.168 2.759.294 3.983.489 1.432 1.781 2.01 4.253 2.01h2.425c.087 0 .17-.004.255-.006.084-.002.163 0 .243-.005.065 0 .133-.005.199-.009 1.666-.074 2.848-.414 3.493-1.374.608-.86.901-1.908.828-2.963V8.308c0-.135-.085-.276-.214-.276M157.661 8.033h-5.219c-2.567 0-4.942.528-4.942 4.375V15.8c0 3.844 2.376 4.375 4.942 4.375h5.219c2.568 0 4.942-.528 4.942-4.375v-3.393c0-3.845-2.375-4.375-4.942-4.375Zm1.067 5.458v1.226c0 1.622-.313 2.018-1.594 2.018h-4.162c-1.282 0-1.595-.396-1.595-2.018V13.49c0-1.338.274-2.018 1.771-2.018h3.811c1.496 0 1.771.68 1.771 2.018" fill="#E2231A"></path><path d="M124.553 8.033h-5.219c-2.567 0-4.942.528-4.942 4.375V15.8c0 3.844 2.375 4.375 4.942 4.375h5.219c2.567 0 4.943-.528 4.943-4.375v-3.393c0-3.845-2.377-4.375-4.943-4.375Zm1.067 5.458v1.226c0 1.622-.313 2.018-1.594 2.018h-4.162c-1.282 0-1.595-.396-1.595-2.018V13.49c0-1.338.274-2.018 1.771-2.018h3.811c1.496 0 1.771.68 1.771 2.018M38.038 19.452l-6.243-5.635 5.568-5.373a.243.243 0 0 0-.172-.41h-2.968c-1.752-.004-1.517-.043-1.825.264-.877.87-3.759 3.82-3.848 3.906v-3.93a.248.248 0 0 0-.074-.17.24.24 0 0 0-.17-.07H25.05a.222.222 0 0 0-.165.066l-.008.007-.004.004a.218.218 0 0 0-.065.164v11.347a.25.25 0 0 0 .073.17c.046.045.107.07.17.07h3.257a.241.241 0 0 0 .17-.07.248.248 0 0 0 .073-.17v-4.05c.04.039 3.921 3.64 4.216 3.921.39.37.436.37.54.37h4.56a.235.235 0 0 0 .22-.147.245.245 0 0 0-.048-.264M75.367 8.032h-5.003a.24.24 0 0 0-.21.119l-3.471 6.887-3.473-6.887a.245.245 0 0 0-.21-.12h-5.002a.226.226 0 0 0-.165.067l-.008.008-.004.004a.214.214 0 0 0-.065.164v11.347a.246.246 0 0 0 .073.17c.045.046.106.07.17.07h3.169a.238.238 0 0 0 .17-.069.246.246 0 0 0 .072-.171v-7.22l3.845 7.341a.245.245 0 0 0 .21.12H67.9a.24.24 0 0 0 .21-.12c.712-1.358 3.765-7.186 3.845-7.342v7.221a.248.248 0 0 0 .073.171.24.24 0 0 0 .17.07h3.17a.24.24 0 0 0 .17-.07.247.247 0 0 0 .072-.171V8.272a.247.247 0 0 0-.072-.17.24.24 0 0 0-.17-.07M94.065 19.502 88.227 8.151a.244.244 0 0 0-.21-.12h-4.231a.202.202 0 0 0-.218.12l-5.753 11.351a.246.246 0 0 0 .092.33.236.236 0 0 0 .119.032h3.637a.24.24 0 0 0 .21-.12c.213-.447.64-1.344.935-1.914l6.296.026c.016 0 .701 1.46.916 1.887a.244.244 0 0 0 .21.12h3.623a.237.237 0 0 0 .208-.12.246.246 0 0 0 .002-.242l.002.001Zm-9.844-4.57 1.672-3.472 1.72 3.472h-3.392Z" fill="#231F20"></path><path d="M177.682 16.653h-8.308v-1.335h6.769a.239.239 0 0 0 .17-.07.248.248 0 0 0 .074-.17v-2.354a.248.248 0 0 0-.244-.24h-6.769v-1.338c2.705 0 5.592.012 8.3.012a.244.244 0 0 0 .243-.24V8.282a.24.24 0 0 0-.228-.252h-11.816a.221.221 0 0 0-.165.065l-.007.008-.005.005a.22.22 0 0 0-.065.163v11.349a.247.247 0 0 0 .243.24h11.809a.243.243 0 0 0 .243-.24v-2.727a.247.247 0 0 0-.073-.17.242.242 0 0 0-.17-.07M180.471 8.386c.235.008.463.085.655.224.192.138.339.33.424.554a1.225 1.225 0 0 1-.286 1.312 1.19 1.19 0 0 1-1.301.243 1.195 1.195 0 0 1-.53-.45c-.13-.2-.198-.433-.198-.672a1.244 1.244 0 0 1 .367-.865 1.215 1.215 0 0 1 .864-.346h.005Zm-.015.244a.945.945 0 0 0-.656.297.976.976 0 0 0 .01 1.352c.175.179.412.282.661.286a.904.904 0 0 0 .854-.6.936.936 0 0 0 .056-.368.936.936 0 0 0-.558-.892.906.906 0 0 0-.359-.075h-.008Zm-.182 1.595h-.276V9.02c.151-.03.304-.046.458-.045a.66.66 0 0 1 .415.097.33.33 0 0 1 .116.259.313.313 0 0 1-.247.287v.015a.347.347 0 0 1 .219.295.786.786 0 0 0 .087.296h-.299a1.002 1.002 0 0 1-.095-.288c-.022-.132-.095-.192-.247-.192h-.13l-.001.48Zm.008-.68h.13c.153 0 .276-.052.276-.176 0-.112-.08-.185-.255-.185a.656.656 0 0 0-.152.014l.001.347Z" fill="#E2231A"></path><path d="M55.517 19.502 49.677 8.15a.245.245 0 0 0-.21-.12h-4.233a.202.202 0 0 0-.218.12l-5.75 11.348a.246.246 0 0 0 .09.33.237.237 0 0 0 .12.032h3.638a.237.237 0 0 0 .21-.119c.213-.448.64-1.344.934-1.915l6.296.03c.017 0 .702 1.462.917 1.888a.243.243 0 0 0 .21.12h3.623a.237.237 0 0 0 .207-.12.246.246 0 0 0 .003-.243h.002Zm-8.175-8.043 1.72 3.473h-3.393a4818.15 4818.15 0 0 0 1.673-3.473ZM111.065 10.543c-.727-2.746-3.844-2.509-6.144-2.509h-8.144a.226.226 0 0 0-.165.066l-.008.008-.005.005a.22.22 0 0 0-.065.163v11.346a.25.25 0 0 0 .074.17c.046.045.107.07.17.07h7.106c2.134 0 5.842.324 7.023-2.113.839-1.733.488-5.949.157-7.203l.001-.003Zm-3.572 5.208c-.47 1.131-2.451.932-3.52.932h-3.563a.117.117 0 0 1-.121-.106v-4.998a.09.09 0 0 1 .032-.072h.005a.122.122 0 0 1 .082-.027h4.082c1.153 0 2.507-.112 2.967.835a8.09 8.09 0 0 1 .034 3.44" fill="#231F20"></path><path d="M17.285 11.696c-2.716.488-5.468.729-8.226.718-2.757.01-5.51-.23-8.225-.718a.45.45 0 0 0-.426.123.464.464 0 0 0-.121.433c.017.378.056.755.117 1.127.065.239.27.39.331.625.042.28.055.564.04.847a23.22 23.22 0 0 0 .346 3.153c.161 1.038.417 2.059.763 3.049a34.9 34.9 0 0 0 .623 1.585c.094.222.199.456.273.651.021.057.045.112.07.167a.535.535 0 0 1 .022.057l.047.132c.095.28.251.534.457.744.205.21.455.37.73.469a7.502 7.502 0 0 0 1.745.466c.434.066.932.143 1.474.181a23.72 23.72 0 0 0 3.469 0c.288-.02.58-.048.867-.091.266-.04.303-.042.606-.09a7.581 7.581 0 0 0 1.747-.466c.275-.098.524-.258.73-.468.205-.21.361-.464.456-.744l.046-.132c0-.008.006-.015.01-.023.029-.06.06-.139.083-.198.076-.198.18-.429.273-.652.21-.497.407-.999.594-1.504.358-1.017.623-2.065.791-3.131.183-1.018.298-2.047.345-3.08a4.935 4.935 0 0 1 .041-.925c.058-.235.269-.385.332-.623.06-.374.1-.75.118-1.128a.469.469 0 0 0-.121-.434.454.454 0 0 0-.427-.122M17.296 7.954a5.395 5.395 0 0 1-.556-1.266 7.439 7.439 0 0 0-.692-1.173 7.588 7.588 0 0 0-4.15-2.733l-.005-.079a.447.447 0 0 0-.108-.271c0-.06-.005-.12-.01-.18-.008-.123-.024-.245-.035-.366v-.1c-.004-.106-.031-.132-.137-.172a1.444 1.444 0 0 0-.314-.051c-.098-.013-.195-.023-.298-.035-.011-.05-.26-.268-.275-.353-.015-.085-.035-.152-.048-.229a.078.078 0 0 0-.021-.04.076.076 0 0 0-.04-.022.613.613 0 0 0-.13-.036c-.16-.011-.326-.011-.482-.03a2.298 2.298 0 0 0-.213-.014H8.09c-.07 0-.142.005-.213.014-.16.019-.32.019-.482.03a.598.598 0 0 0-.13.036.076.076 0 0 0-.06.062c-.014.077-.033.153-.049.23-.015.076-.264.302-.275.352-.101.012-.2.022-.299.035a1.456 1.456 0 0 0-.314.05c-.105.038-.13.067-.137.173v.1c-.011.121-.026.243-.035.366-.01.132-.015.264-.021.396v.018c-.005.045-.01.09-.017.137a7.6 7.6 0 0 0-4.08 2.712 6.9 6.9 0 0 0-.669 1.107c-.136.442-.314.87-.532 1.276A3.047 3.047 0 0 0 .24 8.954c-.07.373-.076.755-.019 1.13a.473.473 0 0 0 .325.436 46.669 46.669 0 0 0 16.924 0 .455.455 0 0 0 .325-.436 2.804 2.804 0 0 0-.503-2.13" fill="#E2231A"></path></g><defs><clipPath id="a"><path fill="#fff" transform="translate(.229 .804)" d="M0 0h181.454v24.772H0z"></path></clipPath></defs></svg>