<svg viewBox="0 0 460 123" xmlns="http://www.w3.org/2000/svg"><g clipRule="evenodd" fill="#5a8da9" fillRule="evenodd"><path d="m361.654 26.3036.408.0024c6.391.0985 12.422 3.0896 16.368 8.1736h.223v-6.6179h11.423v49.9331c0 18.5881-14.211 29.3272-29.464 29.3272-9.178-.029-17.87-4.125-23.735-11.1837l9.918-7.1309.238.3121c3.14 4.0163 7.89 6.4582 12.997 6.6649l.414-.0031c12.056-.1784 18.209-8.1644 18.209-16.6185v-3.745l-.28.3331c-4.422 5.1723-10.829 8.2079-17.605 8.3744l-.433.0067c-.289.0019-.579-.0014-.869-.0101-14.569 0-27.36-10.9442-27.36-28.7286 0-18.5026 13.731-29.0706 28.728-29.0706.274-.0117.547-.018.82-.0191zm63.956.1388.589.0044c19.338.2921 30.5 14.9702 30.5 29.6818 0 14.8602-11.423 29.635-31.089 29.635-19.665 0-31.054-14.7406-31.054-29.635s11.389-29.6862 31.054-29.6862zm-168.353 1.4193v31.4818c-.521 5.1889 1.954 10.2225 6.381 12.9792 2.213 1.3783 4.722 2.0674 7.231 2.0674l.342-.0043c2.395-.0598 4.777-.7475 6.889-2.0631 4.427-2.7567 6.902-7.7903 6.381-12.9792l-.051-31.4647h12.09v32.4907c0 15.7837-12.278 25.2231-25.651 25.2402-13.372.0171-25.753-9.371-25.753-25.1718v-32.5762zm-51.215-18.8617v40.2372h6.156l14.809-21.3755h14.655l-.101.1383h.101l-19.084 26.3673 20.007 29.6327h-.093l.093.139h-14.296l-14.928-23.4788h-7.319v23.4788h-12.125v-23.4788h-7.917v-11.423h7.917v-40.2372zm121.635 17.3227c2.335-.0773 4.643.5161 6.652 1.71l-4.327 11.9703c-1.334-.9313-2.892-1.4919-4.514-1.6246l-.308.0024c-2.15.0566-4.199.9449-5.711 2.4849-1.584 1.6134-2.443 3.8027-2.378 6.0629v37.2104h-12.072v-56.2773h11.388v6.139h.223c1.76-4.5822 6.138-7.6257 11.047-7.678zm98.323 11.4724-.39.0019c-8.068.0381-15.162 5.3466-17.475 13.0762-2.313 7.7295.699 16.0626 7.42 20.5261 2.998 1.9289 6.491 2.9448 10.055 2.9241v.0684c.144.0028.288.0038.431.0032l.43-.0072c4.578-.1311 8.947-2.0071 12.199-5.2626 3.456-3.459 5.353-8.1766 5.255-13.065-.001-4.0198-1.316-7.9291-3.745-11.1323-3.436-4.5712-8.852-7.222-14.57-7.1309zm-64.106.0019-.326.0069c-9.342.285-16.775 7.9988-16.671 17.3842-.213 4.6198 1.491 9.1224 4.709 12.4439s7.664 5.1673 12.288 5.1011c9.782 0 16.759-7.7978 16.759-17.3911-.011-3.8595-1.264-7.6129-3.574-10.7048-3.051-4.2537-7.95-6.7951-13.185-6.8402z"/><path d="m459.487 26.9876c.049 1.9199-1.075 3.6764-2.839 4.437-1.763.7607-3.812.3725-5.175-.9805-1.363-1.3529-1.766-3.3987-1.019-5.1678.748-1.7691 2.496-2.9059 4.416-2.8716 1.22-.0045 2.392.4758 3.258 1.3352.865.8595 1.354 2.0277 1.359 3.2477zm-8.208 0c-.028.967.339 1.9036 1.017 2.594.677.6905 1.607 1.0752 2.574 1.0655.944.0017 1.846-.3867 2.494-1.0731.647-.6865.983-1.6101.926-2.5522.092-1.314-.557-2.5694-1.682-3.2543-1.126-.6849-2.539-.6849-3.664 0s-1.774 1.9403-1.682 3.2543zm2.804 2.3599h-1.06v-4.5487c.566-.0902 1.137-.136 1.71-.1368.537-.0565 1.077.0636 1.539.342.405.2487.607.7274.503 1.191-.105.4636-.492.8096-.965.861.445.1368.684.513.838 1.1115.058.3815.162.7546.308 1.1116h-1.111c-.183-.3472-.304-.7232-.359-1.1116-.086-.4788-.377-.684-.924-.684h-.53zm0-2.548h.513c.582 0 1.061-.2052 1.061-.6498s-.308-.7182-.958-.7182c-.205-.0251-.411-.0251-.616 0z"/><path d="m106.758 42.4464c.675-.1362 1.366-.1701 2.052-.1026l1.265.171.415.0705c7.457 1.2836 21.13 4.5732 28.314 11.4209 0 0 5.78 4.3264 6.84 16.6216 3.95 6.31 3.847 10.7903 4.702 14.9628 3.184-7.9198 3.894-16.6184 2.035-24.9494-.816-2.6785-1.14-5.4826-.957-8.2766 1.282 1.3851 2.821 4.0699 3.625 9.2 0 0 12.535 11.3888 13.031 18.1606l27.634 9.6446s4.063 1.3303 8.197 2.571l.636.19c2.33.6926 4.618 1.3336 6.147 1.668 4.377.9576 5.934-.2565 7.644.7011v-.0031c.024-.0359.319-.0636 3.967 2.5681 1.263.3178 2.341 1.1401 2.981 2.2746s.786 2.4825.405 3.7275c0 0 .01.035.012.095v.057c-.019.385-.404 1.37-3.843 1.37l-1.282.257s-7.131 1.47-8.704-.753c0 0-1.112-1.488-5.473-2.856-18.34-6.0474-37.075-10.824-56.072-14.2955-.435 1.008-.446 2.1487-.031 3.1651.415 1.0165 1.221 1.8233 2.237 2.2386l19.597 11.3888c2.94 1.497 6.045 2.645 9.252 3.42 1.031.135 1.953.709 2.531 1.573 2.53 3.677 5.13 4.994 4.24 7.542-.496 1.487-.615 3.317-1.71 4.377-.513.411-2.035.24-2.223.411-.632.564-1.59 1.71-5.472-.205-2.579-.288-4.854-1.821-6.088-4.105-.29-.53-1.744-2.633-2-2.975-.458-.672-1.038-1.252-1.71-1.71-1.403-1.077-10.962-6.772-13.783-8.157-2.155-1.06-13.578-6.6349-16.126-7.4386-3.295-2.2171-6.057-5.1373-8.088-8.5502l-2.258.5815s-.003.002-.011.0059l-.035.0171c-.635.3104-7.831 3.5922-20.474-.519-2.29-2.0958-4.098-4.6627-5.301-7.5241-4.3266-11.4402-1.71-29.4811-1.71-29.4811.417-3.5702 2.488-6.7368 5.592-8.5501zm-34.0301 3.7278c9.2359-3.2929 19.016-4.7904 28.8141-4.4119-.28.1872-.533.4115-.752.667-2.8191 2.3172-4.392 7.1688-4.9235 9.0829l-.0689.2528c-.0928.3476-.1381.5483-.1381.5483-2.3428 17.6305 1.5561 27.1896 1.5561 27.1896.8249 2.3371 2.2384 4.422 4.1044 6.0535l.425.1469-.982-.3369c-4.9209-1.6546-9.9726-2.8912-15.1015-3.6968l-1.1002-.166s-.0019.002-.0057.006l-.0311.031c-.3945.3855-4.0569 3.7153-15.781 6.8032l5.3353 6.2245c1.1224 1.757 1.1224 4.0058 0 5.7627l-2.3598 5.712c-.7207.909-2.0103 1.13-2.9926.513-1.7271 0-3.1465-2.069-3.1465-2.069-2.2059-.171-2.6676-3.814-2.6676-3.814-.9036-1.8069-.4623-4.9588-.1774-6.4531l.0512-.2601c.0324-.1594.061-.29.0826-.3859l.0271-.1171c.0106-.0448.0165-.0684.0165-.0684l-2.3257-4.7197c-.6026-1.1342-.3791-2.5306.5472-3.4201l-.5643-.8379c-2.0691.4275-4.8907 1.0944-4.8907 1.0944-.9095.0519-1.6986.6455-2.0007 1.5048l-.4446 4.2751.1539 4.3093c.3728 2.5733-1.1341 5.0487-3.5911 5.8997l-4.6684 2.685c-1.3665.328-2.7799-.322-3.4201-1.574-1.1948-1.048-1.9162-2.534-2.0007-4.1207-2.1718-1.6759-.3762-5.4208-.3762-5.4208.2135-2.8063 3.3516-4.9053 4.0276-5.3263l.0946-.0579c.0217-.013.0331-.0196.0331-.0196 1.3204-1.1632 2.3559-2.6141 3.0268-4.2409.1839-1.8118 1.5307-3.2904 3.3175-3.6423l5.626-1.1971c-1.6648-.9119-3.186-2.0643-4.5145-3.42 0 0-.0102.0109-.0307.0319l-.1361.1367c-.1904.1875-.543.5219-1.0551.9564l-.2693.2254c-3.7205 3.0717-14.329 10.1426-30.9995 7.8325 0 0 1.0431-.8892-1.71-1.4878l-.2467-.0247c-8.17003-.8703-19.26469-7.0967-15.861889-16.3232 0 0 .006674.0067.019587.0196l.057024.0564c.661388.65 5.399408 5.1813 6.130828 2.3351 4.40765 3.7714 9.70495 6.3553 15.39035 7.5071 6.6862 1.6758 16.194 2.2402 27.0528-5.8312 0 0-2.7361-14.8432 23.4446-24.4194zm65.0501-45.726354c.889-.92342 2.24-.136803 2.599 0 .915.423799 1.872.750494 2.856.974724.771-.23285 1.525-.518535 2.257-.855022.679-.31327 1.425-.454234 2.172-.410408 1.445.293709 2.847.770671 4.172 1.41933l.257.1368c.823-.0332 1.646.08266 2.428.34201 2.068.14094 4.016 1.02103 5.489 2.47955 1.353.68876 2.127 2.15384 1.933 3.65948-.513 2.34279 3.266 2.85579 3.266 2.85579l9.935 1.5732 3.129.2565s2.856 0 2.856 2.0863c0 0 .787 3.3858-1.009 4.6684 0 0 .308 2.3598-3.112 5.4721-.73 1.3132-1.705 2.4742-2.873 3.4201 0 0-1.71 3.1122-6.84 2.0862 0 0-7.627-1.1628-9.97.5472-1.55 1.2431-2.987 2.6223-4.292 4.1212-3.075 3.7742-4.582 8.5867-4.206 13.4409l-.012-.1729-.044.0613c-1.044 1.3874-3.605 1.8773-9.601-1.4799l-.33-.1869c-8.016-4.3228-16.678-7.3199-25.651-8.8751 1.226-1.4693 2.545-2.8573 3.951-4.1554 4.744-4.5159 8.749-9.7498 11.867-15.5101 1.084.7046 2.092 1.5183 3.01 2.4283 1.354 1.0946 2.511 2.4133 3.42 3.8989.403.6638.719 1.3764.94 2.1204v-1.1628c0-1.0602.103-2.1205 0-3.1807-.07-.4954-.19-.9824-.359-1.4535-.904-1.6241-2.058-3.0957-3.42-4.3606-.657-.6145-1.354-1.1857-2.086-1.71-.668-.5495-1.215-1.2305-1.607-2.0008-.147-.2191-.267-.4543-.36-.7011-.324-1.2141-.889-2.87286.291-3.72788 1.954-1.14711 3.823-2.43294 5.592-3.84758 1.129-1.27816 2.169-2.63227 3.112-4.05279.069-.102602.24-.205204.24-.205204z"/></g></svg>